<svg xmlns="http://www.w3.org/2000/svg" xml:space="preserve" width="200" height="200" viewBox="0 0 423.117 423.117" fill="#fff4cb"><path d="M367.698 152.124c6.803 0 13.197-2.648 18.007-7.458 4.811-4.811 7.46-11.205 7.46-18.008s-2.649-13.197-7.46-18.007l-25.209-25.21c-4.81-4.811-11.204-7.459-18.007-7.459s-13.197 2.648-18.007 7.459c-9.13 9.129-9.858 23.52-2.199 33.497l-5.997 5.62c-21.426-17.122-47.094-29.146-75.156-34.201V75.542c20.176-.756 36.359-17.396 36.359-37.753C277.489 16.952 260.537 0 239.7 0h-57.117c-20.837 0-37.789 16.952-37.789 37.789 0 20.357 16.183 36.997 36.359 37.753v12.815c-28.308 5.1-54.178 17.291-75.716 34.652l-5.162-5.363c8.251-9.993 7.706-24.857-1.64-34.205-4.81-4.811-11.206-7.459-18.008-7.459S67.43 78.63 62.62 83.441l-25.209 25.21c-4.81 4.81-7.459 11.204-7.459 18.007s2.649 13.197 7.459 18.007c4.81 4.811 11.206 7.459 18.008 7.459a25.273 25.273 0 0 0 15.675-5.4l5.625 5.845c-21.508 28.32-34.293 63.61-34.293 101.834 0 93.029 75.686 168.715 168.716 168.715s168.715-75.686 168.715-168.715c0-38.49-12.965-74.004-34.745-102.424l6.211-5.821c4.582 3.86 10.315 5.966 16.375 5.966zm-17.841 102.278c0 76.487-62.228 138.715-138.715 138.715-76.488 0-138.716-62.228-138.716-138.715 0-76.488 62.228-138.716 138.716-138.716 76.488.001 138.715 62.228 138.715 138.716z"/><path d="M211.142 147.44c-58.979 0-106.962 47.983-106.962 106.962s47.983 106.961 106.962 106.961 106.961-47.982 106.961-106.961S270.121 147.44 211.142 147.44zm56.833 77.129-35.322 30.934c-.261 5.146-2.333 10.217-6.263 14.147-8.421 8.421-22.075 8.421-30.496 0-8.421-8.422-8.421-22.075 0-30.496 4.659-4.659 10.918-6.729 17.008-6.232l35.307-30.921c6.233-5.457 15.708-4.831 21.167 1.401 5.458 6.233 4.83 15.709-1.401 21.167z"/></svg>