<svg xmlns="http://www.w3.org/2000/svg" width="46.286" height="41.854"><path d="M2.355 14.908c-.38 3.805-.859 17.902 0 18.834.918.997 19.69 11.034 21.307 10.939 1.617-.095 23.305-9.702 23.685-11.034.38-1.332-.19-17.407-.951-19.5" style="fill:#f95;stroke-width:1.64281" transform="translate(-1.182 -2.828)"/><path d="M23.928 23.253c2.343-.19 22.228-6.25 22.952-6.728.749-.493.279-6.183.003-7.514-.176-.852-19.575-6.191-23.155-6.183-3.967.009-21.96 4.726-22.15 6.183-.176 1.331-.61 6.986-.27 7.514.341.529 20.277 6.918 22.62 6.728Z" style="fill:#ff7f2a;stroke-width:1.6307" transform="translate(-1.182 -2.828)"/><path d="M23.853 15.004c1.65.061 21.08-3.916 22.01-5.464-.169-.767-18.688-5.768-22.106-5.761-3.787.008-20.963 4.354-21.146 5.666.994 1.56 19.377 5.462 21.242 5.559Z" style="fill:#ffb380;stroke-width:1.51238" transform="translate(-1.182 -2.828)"/><path d="M43.804 19.95c.302.74.643 11.296.404 11.795-.24.498-15.257 6.885-15.695 6.563-.438-.322-.48-12.418-.095-13.222.384-.804 15.084-5.877 15.386-5.136Z" style="fill:#ffb380;stroke-width:1.64281" transform="translate(-1.182 -2.828)"/><path d="m31.94 27.819 3.115-3.274c.325-.342.743-.327.94.028l2.754 5.004c.174.317.077.84-.217 1.175l-2.82 3.21c-.312.354-.72.391-.914.08l-3.084-4.932c-.22-.351-.118-.929.226-1.291z" style="fill:#806600;stroke-width:1.64281" transform="translate(-1.471 -2.654)"/><path d="m35.72 23.803 3.381-1.073c.348-.11.631.17.638.628l.094 6.63c.006.433-.257.89-.593 1.03l-3.26 1.353c-.365.151-.673-.088-.688-.54l-.23-6.943c-.015-.48.28-.965.659-1.085z" style="fill:#fc0;stroke-width:1.64281" transform="translate(-1.471 -2.654)"/><path d="m39.566 23.344 2.783.93c.286.095.401.524.26.962l-2.1 6.558c-.14.44-.492.747-.79.686l-2.901-.592c-.326-.067-.47-.496-.32-.963l2.233-6.934c.149-.464.523-.752.835-.647z" style="fill:#ffe680;stroke-width:1.64281" transform="translate(-1.471 -2.654)"/><path d="M7.587 36.881c-.476-.76 0-25.397.76-25.683.761-.285 24.447-6.943 24.447-6.943L37.93 5.68s-23.114 7.04-24.065 7.325c-.761.38-.857 27.014-.857 27.014z" style="fill:#c83737;stroke-width:1.64281" transform="translate(-1.182 -2.828)"/></svg>