<?xml version="1.0" encoding="UTF-8" standalone="no"?>
<!-- Created with Inkscape (http://www.inkscape.org/) -->

<svg
   width="45.582726"
   height="39.775841"
   viewBox="0 0 45.582726 39.775841"
   version="1.1"
   id="svg5"
   sodipodi:docname="collectible_symbol.svg"
   inkscape:export-filename="collectible_presentl.svg"
   inkscape:export-xdpi="82.961884"
   inkscape:export-ydpi="82.961884"
   xml:space="preserve"
   inkscape:version="1.2.1 (9c6d41e410, 2022-07-14)"
   xmlns:inkscape="http://www.inkscape.org/namespaces/inkscape"
   xmlns:sodipodi="http://sodipodi.sourceforge.net/DTD/sodipodi-0.dtd"
   xmlns="http://www.w3.org/2000/svg"
   xmlns:svg="http://www.w3.org/2000/svg"><sodipodi:namedview
     id="namedview7"
     pagecolor="#ffffff"
     bordercolor="#000000"
     borderopacity="0.25"
     inkscape:showpageshadow="2"
     inkscape:pageopacity="0.0"
     inkscape:pagecheckerboard="0"
     inkscape:deskcolor="#d1d1d1"
     inkscape:document-units="px"
     showgrid="false"
     showguides="false"
     inkscape:zoom="4.3177083"
     inkscape:cx="45.510253"
     inkscape:cy="-0.92641737"
     inkscape:window-width="1920"
     inkscape:window-height="1009"
     inkscape:window-x="-8"
     inkscape:window-y="-8"
     inkscape:window-maximized="1"
     inkscape:current-layer="layer3"><sodipodi:guide
       position="-71.497208,12.02538"
       orientation="0,-1"
       id="guide279"
       inkscape:locked="false" /><sodipodi:guide
       position="-65.301792,22.331773"
       orientation="0,-1"
       id="guide281"
       inkscape:locked="false" /><sodipodi:guide
       position="-53.779476,24.126707"
       orientation="1,0"
       id="guide283"
       inkscape:locked="false" /><sodipodi:guide
       position="-86.146183,26.848058"
       orientation="0,-1"
       id="guide381"
       inkscape:locked="false" /></sodipodi:namedview><defs
     id="defs2" /><g
     inkscape:label="Capa 1"
     inkscape:groupmode="layer"
     id="layer1"
     transform="translate(-76.99781,-4.9057512)"><path
       style="fill:#803300;stroke-width:1.64281"
       d="m 77.428638,12.287832 c 11.786718,8.559798 23.940982,15.858414 44.450302,-0.679081 0,0 -20.25092,-6.7681271 -22.634575,-6.7025261 -2.383658,0.0656 -21.815727,7.3816071 -21.815727,7.3816071 z"
       id="path5004"
       sodipodi:nodetypes="cczc" /><path
       style="fill:#ff9955;stroke-width:1.64281"
       d="m 77.428638,12.287832 c -0.380483,3.804831 -0.776554,20.521694 0.08188,21.454206 0.918118,0.997339 19.689985,11.034002 21.307038,10.938881 1.617044,-0.09512 23.304564,-9.702312 23.685054,-11.034002 0.38048,-1.331691 -0.76343,-19.94551 -0.62367,-22.038166 0,0 -20.25092,7.479776 -22.634575,7.545377 -2.383658,0.0656 -21.815727,-6.866296 -21.815727,-6.866296 z"
       id="path4918"
       sodipodi:nodetypes="csssczc" /><path
       style="opacity:0.6;fill:#803300;stroke-width:1.64281"
       d="m 121.75691,11.638949 c 0.52327,5.714321 0.86843,20.113854 0.76007,21.926083 -0.38048,1.33169 -22.068,10.938882 -23.685052,11.034002 -0.87971,-0.526967 -0.149631,-23.574524 -0.05801,-25.514789 6.679582,-2.205482 21.318672,-6.959683 22.982992,-7.445296 z"
       id="path5007"
       sodipodi:nodetypes="ccscc" /></g><g
     inkscape:groupmode="layer"
     id="layer3"
     inkscape:label="Llac"
     transform="translate(-76.99781,-4.9057512)"><path
       style="fill:#c83737;stroke:#6a2828;stroke-width:0.5;stroke-dasharray:none;stroke-opacity:1"
       d="m 116.58005,37.126674 c 0.4756,-0.760966 0.20761,-23.424477 -0.55334,-23.70984 -2.04029,0.897188 -4.30381,0.966135 -5.517,1.807294 0.76096,0.380482 0.30045,24.570693 0.30045,24.570693 z"
       id="path4924"
       sodipodi:nodetypes="ccccc" /><path
       style="fill:#c83737;stroke:#6a2828;stroke-width:0.5;stroke-dasharray:none;stroke-opacity:1"
       d="m 82.742162,36.881021 c -0.475604,-0.760966 0,-22.849581 0.760965,-23.134944 1.200355,0.478878 3.073179,1.273691 5.517001,1.807294 -0.760965,0.380482 -0.692317,24.220978 -0.692317,24.220978 z"
       id="path4926"
       sodipodi:nodetypes="ccccc" /></g></svg>
