<?xml version="1.0" encoding="UTF-8" standalone="no"?>
<!-- Created with Inkscape (http://www.inkscape.org/) -->

<svg
   width="46.291115"
   height="52.08749"
   viewBox="0 0 46.291115 52.08749"
   version="1.1"
   id="svg5"
   sodipodi:docname="collectible_symbol.svg"
   inkscape:export-filename="collectible_presentl.svg"
   inkscape:export-xdpi="82.961884"
   inkscape:export-ydpi="82.961884"
   xml:space="preserve"
   inkscape:version="1.2.1 (9c6d41e410, 2022-07-14)"
   xmlns:inkscape="http://www.inkscape.org/namespaces/inkscape"
   xmlns:sodipodi="http://sodipodi.sourceforge.net/DTD/sodipodi-0.dtd"
   xmlns="http://www.w3.org/2000/svg"
   xmlns:svg="http://www.w3.org/2000/svg"><sodipodi:namedview
     id="namedview7"
     pagecolor="#ffffff"
     bordercolor="#000000"
     borderopacity="0.25"
     inkscape:showpageshadow="2"
     inkscape:pageopacity="0.0"
     inkscape:pagecheckerboard="0"
     inkscape:deskcolor="#d1d1d1"
     inkscape:document-units="px"
     showgrid="false"
     showguides="false"
     inkscape:zoom="4.3177083"
     inkscape:cx="45.510253"
     inkscape:cy="-0.92641737"
     inkscape:window-width="1920"
     inkscape:window-height="1009"
     inkscape:window-x="-8"
     inkscape:window-y="-8"
     inkscape:window-maximized="1"
     inkscape:current-layer="layer3"><sodipodi:guide
       position="4.3236031,12.02538"
       orientation="0,-1"
       id="guide279"
       inkscape:locked="false" /><sodipodi:guide
       position="10.519019,22.331773"
       orientation="0,-1"
       id="guide281"
       inkscape:locked="false" /><sodipodi:guide
       position="22.041335,24.126707"
       orientation="1,0"
       id="guide283"
       inkscape:locked="false" /><sodipodi:guide
       position="-10.325372,26.848058"
       orientation="0,-1"
       id="guide381"
       inkscape:locked="false" /></sodipodi:namedview><defs
     id="defs2" /><g
     inkscape:label="Capa 1"
     inkscape:groupmode="layer"
     id="layer1"
     transform="translate(-1.177,7.4058981)"><path
       style="fill:#ff9955;stroke-width:1.64281"
       d="m 2.3549136,14.908136 c -0.3804832,3.804831 -0.8584392,17.90139 0,18.833902 C 3.2730314,34.739377 22.044899,44.77604 23.661952,44.680919 25.279003,44.585799 46.966525,34.978607 47.347007,33.646917 47.727491,32.315226 47.156766,16.239827 46.3958,14.147171"
       id="path113"
       sodipodi:nodetypes="csssc" /><path
       style="fill:#ff7f2a;stroke-width:1.6307"
       d="m 23.928048,23.25288 c 2.343085,-0.190241 22.227684,-6.250206 22.952434,-6.727689 0.748379,-0.493052 0.278375,-6.182847 0.0028,-7.514538 C 46.707062,8.15913 27.307991,2.8195657 23.728024,2.8278077 19.76054,2.8370074 1.7684246,7.554254 1.5771779,9.010653 1.4023074,10.342342 0.96797001,15.996719 1.3085851,16.525189 1.6492002,17.053659 21.584965,23.443121 23.928048,23.25288 Z"
       id="path115"
       sodipodi:nodetypes="ssssszs" /><path
       style="fill:#ffb380;stroke-width:1.51238"
       d="M 23.853354,15.003718 C 25.5026,15.065328 44.933189,11.088441 45.862536,9.540086 45.694315,8.772852 27.175084,3.7715878 23.757486,3.7790133 19.969946,3.7872274 2.7938587,8.13273 2.6112862,9.444965 3.6051327,11.005706 21.987906,14.906986 23.853354,15.003718 Z"
       id="path383"
       sodipodi:nodetypes="ccscc" /></g><g
     inkscape:groupmode="layer"
     id="layer2"
     inkscape:label="Collectible symbol"
     transform="matrix(1.4278971,0,0,1.4278971,-17.186295,-3.9657129)"
     style="display:none"><path
       style="fill:#ffb380;stroke-width:2.06383"
       d="m 45.603392,18.330708 c 0.379347,0.93037 0.808433,14.190963 0.50787,14.817819 -0.300564,0.626856 -19.167071,8.650331 -19.717258,8.2454 -0.550187,-0.404932 -0.602526,-15.600011 -0.119498,-16.610297 0.48303,-1.010287 18.949541,-7.383293 19.328886,-6.452922 z"
       id="path512"
       sodipodi:nodetypes="zzzzz"
       transform="matrix(0.70033058,0,0,0.70033058,11.211799,7.9638869)" /><path
       id="rect514"
       d="m 31.939992,27.819006 3.114625,-3.274217 c 0.324952,-0.341611 0.743828,-0.327157 0.939487,0.02829 l 2.754634,5.00433 c 0.174302,0.316796 0.07763,0.839013 -0.217177,1.174535 l -2.820211,3.20976 c -0.311272,0.354264 -0.718856,0.391671 -0.913631,0.08012 l -3.083486,-4.932112 c -0.219469,-0.351045 -0.118669,-0.92864 0.225759,-1.290715 z"
       style="fill:#806600;stroke-width:1.64281" /><path
       id="rect568"
       d="m 35.720655,23.802666 3.380685,-1.073045 c 0.347884,-0.110414 0.631157,0.170813 0.637668,0.628253 l 0.09435,6.630653 c 0.0061,0.432043 -0.257444,0.890191 -0.593373,1.029601 l -3.259819,1.352807 c -0.364996,0.151468 -0.67301,-0.0881 -0.687942,-0.539818 L 35.06271,24.88791 c -0.01593,-0.479746 0.278864,-0.964923 0.65794,-1.085244 z"
       style="fill:#ffcc00;stroke-width:1.64281" /><path
       id="rect570"
       d="m 39.566415,23.343577 2.782778,0.92977 c 0.285813,0.09549 0.401136,0.524655 0.260705,0.963107 l -2.100303,6.557614 c -0.141199,0.440854 -0.492914,0.747261 -0.790845,0.6864 l -2.901138,-0.592627 c -0.325976,-0.06659 -0.469637,-0.496122 -0.319521,-0.962386 l 2.232608,-6.934448 c 0.149248,-0.463577 0.523084,-0.751885 0.835716,-0.64743 z"
       style="fill:#ffe680;stroke-width:1.64281" /></g><g
     inkscape:groupmode="layer"
     id="layer3"
     inkscape:label="Llac"
     transform="translate(-1.177,7.4058981)"><path
       id="path8315"
       style="opacity:0.2;fill:#ffffff;stroke-width:1.64281"
       d="m 9.1394637,6.1043784 c -3.96748,0.0092 -7.3750669,1.4568274 -7.5663119,2.9132249 -0.174871,1.3316877 -0.61014604,6.9852017 -0.269532,7.5136717 0.040052,0.06214 0.371116,0.212025 0.892578,0.416016 -0.330192,5.314585 -0.589692,15.992594 0.154297,16.800781 0.918117,0.997338 0.4619818,0.343106 2.2977838,1.497985 C 5.9956569,24.649329 6.9607358,17.092917 8.1656888,11.227311 7.9894758,10.37579 5.6483594,9.6316704 9.1394637,6.1043784 Z"
       inkscape:original-d="m 9.1394637,6.1043784 c -3.96748,0.0092 -7.3750669,1.4568274 -7.5663119,2.9132249 -0.174871,1.3316877 -0.61014604,6.9852017 -0.269532,7.5136717 0.040052,0.06214 0.371116,0.212025 0.892578,0.416016 -0.330192,5.314585 -0.589692,15.992594 0.154297,16.800781 0.918117,0.997338 0.4619818,0.343106 2.2977838,1.497985 C 5.9956569,24.649329 6.9607358,17.092917 8.1656888,11.227311 7.9894758,10.37579 5.6483594,9.6316704 9.1394637,6.1043784 Z"
       sodipodi:nodetypes="ccscsccc" /><path
       style="fill:#c83737;stroke:none;stroke-width:0.5;stroke-dasharray:none;stroke-opacity:1"
       d="M 41.424438,37.126674 C 41.900042,36.365708 41.342553,12.138868 40.581588,11.853505 39.820622,11.568143 30.726641,8.7311655 30.726641,8.7311655 L 26.400737,10.38958 c 0,0 7.712643,2.985857 8.66385,3.271219 0.760965,0.380482 0.589961,26.134022 0.589961,26.134022 z"
       id="path3151"
       sodipodi:nodetypes="csccccc" /><path
       style="fill:#c83737;stroke:none;stroke-width:0.5;stroke-dasharray:none;stroke-opacity:1"
       d="m 7.586553,36.881021 c -0.475604,-0.760966 0,-25.397229 0.760965,-25.682592 0.760966,-0.285362 11.59198,-3.7013504 11.59198,-3.7013504 l 4.441706,2.1216231 c 0,0 -9.565478,3.1016593 -10.516685,3.3870213 -0.760965,0.380482 -0.692317,26.768626 -0.692317,26.768626 z"
       id="path770"
       sodipodi:nodetypes="csccccc" /><g
       id="g2383"
       transform="matrix(0.9390048,0,0,0.9390048,0.1781504,46.268594)"
       inkscape:label="superior"><g
         inkscape:groupmode="layer"
         id="layer6"
         inkscape:label="Sombres 1"
         transform="matrix(1.0649573,0,0,1.0649573,-0.18972257,-49.274076)"><path
           style="opacity:0.6;fill:#803300;fill-opacity:1;stroke:none;stroke-width:0.5;stroke-linecap:round;stroke-linejoin:round;stroke-dasharray:none;stroke-opacity:1"
           d="M 44.942695,10.471053 C 32.878341,12.8599 26.938553,10.021416 26.938553,10.021416 L 39.972025,6.6304471 c 0,0 6.134126,1.7846473 6.724676,2.2641168 0.59055,0.4794696 -1.754006,1.5764891 -1.754006,1.5764891 z"
           id="path3339"
           sodipodi:nodetypes="ccczc"
           inkscape:label="sombra" /></g><path
         d="m 20.17351,-40.185821 c -4.290095,1.596213 -8.685664,4.425723 -10.4258745,8.575452 -1.583212,3.775351 -1.6524843,8.855093 1.0832685,12.233769 0.289611,-2.55972 2.589915,-7.247059 6.495848,-8.245904 -1.323589,-1.236155 -1.357217,-3.37994 -0.939612,-5.035586 0.527003,-2.089376 2.229734,-4.213188 4.057886,-5.032155"
         id="path3154"
         style="opacity:0.6;fill:#803300;fill-opacity:1;fill-rule:nonzero;stroke:none;stroke-width:0.5;stroke-linejoin:round;stroke-dasharray:none;stroke-opacity:1"
         sodipodi:nodetypes="caccac" /><path
         d="m 19.532893,-40.204677 c -4.442223,1.104293 -9.127764,3.422235 -11.323019,7.350267 -1.997205,3.573655 -2.6365451,8.613478 -0.297561,12.27803 0.5752612,-2.510999 3.387445,-6.910335 7.380847,-7.464185 -1.176383,-1.376986 -0.969029,-3.510985 -0.368121,-5.109255 0.758327,-2.016969 2.68881,-3.93611 4.597374,-4.544576"
         id="path-1-7"
         style="opacity:1;fill:#cf5151;fill-opacity:1;fill-rule:nonzero;stroke:none;stroke-width:0.181043;stroke-linejoin:round;stroke-dasharray:none;stroke-opacity:1"
         sodipodi:nodetypes="caccac" /><path
         d="m 36.276686,-45.339606 c 2.623311,-0.869197 5.498874,-3.477702 6.884203,-5.713204 0.178264,1.160361 0.249587,1.930724 0.322335,2.829104 2.244377,-0.189041 2.444136,-0.304648 4.831644,-2.384323 -0.457662,5.041724 -3.261406,7.415017 -8.317944,9.488088 -3.144047,1.288991 -6.577212,1.76689 -9.931196,2.300016 l -0.513758,-0.03396"
         id="path-1-5"
         style="opacity:1;fill:#8f2828;fill-opacity:1;fill-rule:nonzero;stroke:none;stroke-width:0.5;stroke-linejoin:round;stroke-dasharray:none;stroke-opacity:1"
         sodipodi:nodetypes="ccccscc" /><path
         d="m 36.276686,-45.339606 c 1.311655,-0.434599 2.686374,-1.304024 3.906345,-2.344238 1.751765,2.50206 1.276135,4.359057 -0.186107,6.563903 -3.144047,1.288991 -6.577212,1.76689 -9.931196,2.300016 l -0.513758,-0.03396"
         id="path8381"
         style="opacity:0.2;fill:#000000;fill-opacity:1;fill-rule:nonzero;stroke:none;stroke-width:0.5;stroke-linejoin:round;stroke-dasharray:none;stroke-opacity:1"
         sodipodi:nodetypes="ccccc" /><path
         d="m 25.971357,-49.596473 c 2.191709,-2.048901 1.801408,-5.6503 3.814765,-6.182667 2.355898,-0.345143 6.126736,0.05563 7.682843,2.220083 1.555769,2.36275 0.303021,7.210427 -1.9655,10.251979 -1.984299,2.459605 -5.706373,4.518838 -8.912659,3.757191 -0.535012,-0.401527 -0.852336,-1.128949 -1.696354,-0.863676"
         id="path-1-2"
         style="opacity:1;fill:#c83737;fill-opacity:1;fill-rule:nonzero;stroke:none;stroke-width:0.5;stroke-linejoin:round;stroke-dasharray:none;stroke-opacity:1"
         sodipodi:nodetypes="cccccc" /><path
         style="opacity:1;fill:#6a2828;fill-opacity:1;stroke:none;stroke-width:0.5;stroke-linecap:round;stroke-linejoin:round;stroke-dasharray:none;stroke-opacity:1"
         d="m 25.080641,-0.52522467 c 1.971047,-1.49790443 2.350667,-4.36386193 2.923858,-5.01893793 0.573192,-0.655076 1.613707,-1.1662515 2.350667,0.225785 0.736961,1.3920365 0.966631,5.49650148 -0.347405,7.0338372 -1.469806,1.7195745 -4.070242,3.8187687 -4.070242,3.8187687"
         id="path3269"
         sodipodi:nodetypes="csssc"
         transform="translate(1.473921,-48.639393)" /><path
         style="opacity:0.2;fill:#000000;fill-opacity:1;stroke:none;stroke-width:0.5;stroke-linecap:round;stroke-linejoin:round;stroke-dasharray:none;stroke-opacity:1"
         d="m 28.004499,-5.5441626 c 0.573192,-0.655076 1.613707,-1.1662515 2.350667,0.225785 0.736961,1.3920365 0.966631,5.49650148 -0.347405,7.0338372 0.360589,-3.8714512 -2.173286,-6.9972037 -2.173286,-6.9972037"
         id="path8385"
         sodipodi:nodetypes="cscc"
         transform="translate(1.473921,-48.639393)" /><path
         d="m 27.096371,-43.251622 c 0.05252,-2.822746 -0.100705,-5.996172 -1.518693,-8.55062 -1.744091,-3.304926 -4.459248,-4.925175 -8.649671,-5.33597 -4.040606,-0.396108 -6.292456,4.44862 -7.4424205,7.827878 -1.2382953,3.638827 1.6758925,6.928658 4.6623185,8.451628 2.281195,1.163327 6.075729,0.982478 7.653121,0.6666 2.257049,-0.962863 3.453335,-1.512691 5.295345,-3.059516 z"
         id="path-1"
         style="opacity:1;fill:#c83737;fill-opacity:1;fill-rule:nonzero;stroke:none;stroke-width:0.5;stroke-linejoin:round;stroke-dasharray:none;stroke-opacity:1"
         sodipodi:nodetypes="csssscc" /><path
         style="opacity:1;fill:#6a2828;fill-opacity:1;stroke:none;stroke-width:0.5;stroke-linecap:round;stroke-linejoin:round;stroke-dasharray:none;stroke-opacity:1"
         d="m 17.717732,7.7587455 c 0,0 -2.476671,0.4643223 -5.037395,-1.1580217 C 10.081028,4.9539347 9.2062726,2.4897467 9.9589867,0.40530759 10.722668,-1.7095009 12.446444,-2.784073 15.967478,-2.3746505 c 3.521033,0.4094225 5.486261,4.585532 6.141337,8.2703345"
         id="path3157"
         sodipodi:nodetypes="csssc"
         transform="translate(1.473921,-48.639393)" /><path
         d="m 10.955612,-48.01065 c 0.718118,-2.223707 2.400849,-3.268454 4.604812,-3.358953 -0.09235,-3.218811 0.699138,-4.592376 1.367583,-5.768609 -4.040606,-0.396108 -6.292456,4.44862 -7.4424205,7.827878 -1.2382953,3.638827 -0.2543426,5.664021 2.7320835,7.186991 -0.469044,-1.528556 -1.906081,-3.003756 -1.262058,-5.887307 z"
         id="path8376"
         style="opacity:0.15;fill:#ffffff;fill-opacity:1;fill-rule:nonzero;stroke:none;stroke-width:0.5;stroke-linejoin:round;stroke-dasharray:none;stroke-opacity:1"
         sodipodi:nodetypes="cccccc" /><path
         style="opacity:0.2;fill:#000000;fill-opacity:1;stroke:none;stroke-width:0.5;stroke-linecap:round;stroke-linejoin:round;stroke-dasharray:none;stroke-opacity:1"
         d="m 17.717732,7.7587455 c 0,0 -2.476671,0.4643223 -5.037395,-1.1580217 3.091556,-0.2157528 5.777752,0.082292 6.530466,-2.0021469 0.763681,-2.1148085 -1.040214,-4.35417763 -3.243325,-6.9732274 3.521033,0.4094225 5.486261,4.585532 6.141337,8.2703345"
         id="path8378"
         sodipodi:nodetypes="ccccc"
         transform="translate(1.473921,-48.639393)" /><path
         d="m 21.521234,-35.344602 c -2.284323,-0.545125 -2.995278,-3.559842 -2.176484,-5.522389 1.103201,-2.03035 3.826617,-1.552062 5.769501,-1.823118 1.841247,0.162233 4.952722,-1.914904 5.9188,0.352494 0.190507,1.880882 0.04187,3.839936 -0.348091,5.69055 -0.501991,1.37535 -1.793621,2.507783 -3.268332,1.866454 z"
         id="path-1-9"
         style="opacity:1;fill:#8a2626;fill-opacity:1;fill-rule:nonzero;stroke:none;stroke-width:0.5;stroke-linejoin:round;stroke-dasharray:none;stroke-opacity:1"
         sodipodi:nodetypes="ccccccc"
         inkscape:label="front" /></g></g><g
     inkscape:groupmode="layer"
     id="layer4"
     inkscape:label="Sombres"
     sodipodi:insensitive="true"
     transform="translate(-1.177,7.4058981)"><path
       style="opacity:0.6;fill:#803300;stroke-width:1.64281"
       d="m 46.887107,8.9884475 c 0.399434,2.4045465 0.773299,6.8442045 -0.136402,7.7682835 0.523277,5.714321 0.704659,15.077957 0.596306,16.890186 -0.380482,1.33169 -22.068004,10.938882 -23.685055,11.034002 -0.87971,-0.526967 -0.149631,-27.382153 -0.05801,-29.322418 0.905598,0.421904 8.014235,-1.320134 13.986433,-2.711898 7.294143,-1.699831 9.224835,-2.6849662 9.296732,-3.6581555 z"
       id="path985"
       sodipodi:nodetypes="cccscscc" /></g></svg>
