<svg xmlns="http://www.w3.org/2000/svg" xml:space="preserve" width="466.099" height="478.3" viewBox="0 0 123.322 126.55"><path d="M66.78 197.238c-7.733-4.533.128-40.786.128-40.786s-24.953-20.9-23.814-31.413c1.14-10.513 38.887-13.047 38.887-13.047s11.4-32.553 22.737-32.553c11.337 0 22.736 32.553 22.736 32.553s37.747 2.534 38.887 13.047c1.14 10.513-23.813 31.413-23.813 31.413s7.86 36.253.126 40.786c-10.024 5.875-37.923-13.045-37.923-13.045s-27.926 18.92-37.95 13.045z" style="fill:#7f6300;fill-opacity:1;stroke-width:.264583" transform="translate(-43.057 -71.82)"/><path d="M66.78 189.618c-7.733-4.533.128-40.787.128-40.787s-24.953-20.9-23.814-31.412c1.14-10.514 38.887-13.047 38.887-13.047s11.4-32.553 22.737-32.553c11.337 0 22.736 32.553 22.736 32.553s37.747 2.533 38.887 13.047c1.14 10.513-23.813 31.412-23.813 31.412s7.86 36.254.126 40.787c-10.024 5.875-37.923-13.045-37.923-13.045s-27.926 18.92-37.95 13.045z" style="fill:#fdc264;fill-opacity:1;stroke-width:.264583" transform="translate(-43.057 -71.82)"/></svg>